<?xml version="1.0" encoding="iso-8859-1"?>
<!-- Generator: Adobe Illustrator 21.0.0, SVG Export Plug-In . SVG Version: 6.00 Build 0)  -->
<svg version="1.1" id="Capa_1" xmlns="http://www.w3.org/2000/svg" xmlns:xlink="http://www.w3.org/1999/xlink" x="0px" y="0px"
	 viewBox="0 0 512 512" style="enable-background:new 0 0 512 512;" xml:space="preserve">
<g id="XMLID_518_">
	<g id="XMLID_519_">
		<g id="XMLID_520_">
			<g id="XMLID_521_">
				<g id="XMLID_522_">
					<g id="XMLID_523_">
						<g id="XMLID_524_">
							<g id="XMLID_525_">
								<path style="fill:#93A3AF;" d="M158.133,143.323v13.392H76.748v-13.392c0-5.69,4.612-10.302,10.302-10.302h60.781
									C153.521,133.022,158.133,137.634,158.133,143.323z"/>
								<path style="fill:#93A3AF;" d="M251.879,456.499v-13.392h-40.177v13.392c0,5.69,4.612,10.302,10.302,10.302h19.573
									C247.267,466.8,251.879,462.188,251.879,456.499z"/>
								<path style="fill:#93A3AF;" d="M178.736,456.499v-13.392H76.748v13.392c0,5.69,4.612,10.302,10.302,10.302h81.384
									C174.124,466.8,178.736,462.188,178.736,456.499z"/>
								<path style="fill:#93A3AF;" d="M315.75,456.499v-13.392h-40.177v13.392c0,5.69,4.612,10.302,10.302,10.302h19.573
									C311.138,466.8,315.75,462.188,315.75,456.499z"/>
								<path id="XMLID_526_" style="fill:#7B8C98;" d="M512,174.66v250.499c0,11.383-9.22,20.604-20.604,20.604H20.604
									C9.22,445.763,0,436.543,0,425.159V174.66c0-11.384,9.22-20.604,20.604-20.604h470.793
									C502.78,154.057,512,163.277,512,174.66z"/>
								<path id="XMLID_527_" style="fill:#627687;" d="M512,174.66v250.499c0,11.383-9.22,20.604-20.604,20.604h-18.028
									c11.384,0,20.604-9.22,20.604-20.604V174.66c0-11.384-9.22-20.604-20.604-20.604h18.028
									C502.78,154.057,512,163.277,512,174.66z"/>
								<rect id="XMLID_528_" x="52.024" y="154.057" style="fill:#FAAA3C;" width="407.952" height="291.706"/>
								
									<rect x="305.365" y="291.154" transform="matrix(6.123234e-17 -1 1 6.123234e-17 151.3083 751.1303)" style="fill:#E79732;" width="291.709" height="17.513"/>
								<path id="XMLID_529_" style="fill:#627687;" d="M27.643,327.81c-4.268,0-7.726-3.459-7.726-7.726v-40.345
									c0-4.268,3.459-7.726,7.726-7.726s7.726,3.459,7.726,7.726v40.345C35.369,324.351,31.91,327.81,27.643,327.81z"/>
							</g>
						</g>
					</g>
				</g>
			</g>
		</g>
	</g>
	<g id="XMLID_530_">
		<path id="XMLID_531_" style="fill:#5F9EEB;" d="M406.704,65.803v231.574c0,2.112-0.649,4.162-1.854,5.893l-33.11,47.481
			c-4.1,5.883-12.805,5.883-16.905,0l-33.11-47.481c-1.205-1.731-1.854-3.781-1.854-5.893V65.803
			c0-11.384,9.22-20.604,20.604-20.604h45.627C397.484,45.2,406.704,54.42,406.704,65.803z"/>
		<rect id="XMLID_532_" x="355.56" y="119.501" style="fill:#3A82D0;" width="15.453" height="177.706"/>
		<path id="XMLID_533_" style="fill:#3A82D0;" d="M406.708,65.803v231.574c0,2.112-0.649,4.162-1.854,5.893l-33.11,47.481
			c-4.1,5.883-12.805,5.883-16.905,0l-1.329-1.916l31.771-45.565c1.205-1.731,1.854-3.781,1.854-5.893V65.803
			c0-11.384-9.22-20.604-20.604-20.604h19.573C397.488,45.2,406.708,54.42,406.708,65.803z"/>
		<path id="XMLID_534_" style="fill:#ED7A98;" d="M406.708,65.803v30.009h-86.834V65.803c0-11.384,9.22-20.604,20.604-20.604h45.627
			C397.488,45.2,406.708,54.42,406.708,65.803z"/>
		<path id="XMLID_535_" style="fill:#EB5777;" d="M406.708,65.803v30.009h-19.573V65.803c0-11.384-9.22-20.604-20.604-20.604h19.573
			C397.488,45.2,406.708,54.42,406.708,65.803z"/>
		<rect id="XMLID_536_" x="319.874" y="90.157" style="fill:#D3D8DF;" width="86.834" height="31.287"/>
		<rect id="XMLID_537_" x="387.135" y="90.157" style="fill:#C2C6CC;" width="19.573" height="31.287"/>
		<path id="XMLID_538_" style="fill:#7B8C98;" d="M406.708,288.425v8.952c0,2.112-0.649,4.162-1.854,5.893l-33.11,47.481
			c-4.1,5.883-12.805,5.883-16.905,0l-1.329-1.916l-31.781-45.565c-1.205-1.731-1.854-3.781-1.854-5.893v-8.952H406.708z"/>
		<path id="XMLID_539_" style="fill:#627687;" d="M387.135,288.425h19.573v8.952c0,2.112-0.649,4.162-1.854,5.893l-33.11,47.481
			c-4.1,5.883-12.805,5.883-16.905,0l-1.329-1.916l31.771-45.565c1.205-1.731,1.854-3.781,1.854-5.893V288.425z"/>
	</g>
	<g id="XMLID_540_">
		<path style="fill:#EBEEF2;" d="M238.489,305.405h-99.584c-5.69,0-10.302-4.612-10.302-10.302v-99.584
			c0-5.69,4.612-10.302,10.302-10.302h99.584c5.69,0,10.302,4.612,10.302,10.302v99.584
			C248.79,300.793,244.178,305.405,238.489,305.405z"/>
		<path id="XMLID_541_" style="fill:#3A82D0;" d="M204.686,240.628c2.563-3.677,4.072-8.141,4.072-12.953
			c0-12.523-10.189-22.712-22.712-22.712H171.06c-4.268,0-7.726,3.459-7.726,7.726v65.244c0,4.268,3.459,7.726,7.726,7.726h17.636
			c13.985,0,25.363-11.378,25.363-25.363C214.059,252.369,210.401,245.282,204.686,240.628z M178.787,220.415h7.259
			c4.003,0,7.26,3.257,7.26,7.26s-3.257,7.26-7.26,7.26h-7.259V220.415z M188.696,270.207h-9.909v-19.82h7.259h2.651
			c5.465,0,9.91,4.446,9.91,9.909C198.607,265.762,194.161,270.207,188.696,270.207z"/>
	</g>
	<path id="XMLID_545_" style="fill:#DD801B;" d="M307.907,347.471H114.391c-4.268,0-7.726-3.459-7.726-7.726
		s3.459-7.726,7.726-7.726h193.516c4.268,0,7.726,3.459,7.726,7.726S312.175,347.471,307.907,347.471z"/>
	<path id="XMLID_546_" style="fill:#DD801B;" d="M325.346,371.131H114.391c-4.268,0-7.726-3.459-7.726-7.726
		s3.459-7.726,7.726-7.726h210.955c4.268,0,7.726,3.459,7.726,7.726S329.614,371.131,325.346,371.131z"/>
	<path id="XMLID_547_" style="fill:#DD801B;" d="M396.922,394.791h-282.53c-4.268,0-7.726-3.459-7.726-7.726
		s3.459-7.726,7.726-7.726h282.53c4.268,0,7.726,3.459,7.726,7.726S401.189,394.791,396.922,394.791z"/>
	<path id="XMLID_548_" style="fill:#DD801B;" d="M396.922,418.451h-282.53c-4.268,0-7.726-3.459-7.726-7.726
		s3.459-7.726,7.726-7.726h282.53c4.268,0,7.726,3.459,7.726,7.726S401.189,418.451,396.922,418.451z"/>
</g>
<g>
</g>
<g>
</g>
<g>
</g>
<g>
</g>
<g>
</g>
<g>
</g>
<g>
</g>
<g>
</g>
<g>
</g>
<g>
</g>
<g>
</g>
<g>
</g>
<g>
</g>
<g>
</g>
<g>
</g>
</svg>
